name rise31.4854peak64.571fall78.6902.mot
datacolumns 19
datarows 11
range 21.78325400000000 21.79991800000000
endheader
time	ground_force1_vx	ground_force1_vy	ground_force1_vz	ground_force1_px	ground_force1_py	ground_force1_pz	ground_force2_vx	ground_force2_vy	ground_force2_vz	ground_force2_px	ground_force2_py	ground_force2_pz	ground_torque1_x	ground_torque1_y	ground_torque1_z	ground_torque2_x	ground_torque2_y	ground_torque2_z	
21.78325400000000	-38.66831000000000	806.37463400000001	58.70876500000000	0.12704000000000	0.00000000000000	0.09671900000000	-7.05008600000000	21.81112300000000	3.07699400000000	0.00000000000000	0.00000000000000	0.00000000000000	0.00000000000000	21.78723900000000	0.00000000000000	0.00000000000000	0.47318400000000	0.00000000000000	
21.78491900000000	-38.75712000000000	803.24114799999995	58.38213900000000	0.12635600000000	0.00000000000000	0.09662100000000	-8.49616200000000	27.80901900000000	3.77773000000000	0.31978600000000	0.00000000000000	-0.09203000000000	0.00000000000000	21.63081900000000	0.00000000000000	0.00000000000000	1.02665000000000	0.00000000000000	
21.78658500000000	-38.86041100000000	799.98809800000004	58.02848700000000	0.12568400000000	0.00000000000000	0.09651700000000	-9.89418700000000	34.19073100000000	4.48031400000000	0.32337900000000	0.00000000000000	-0.09258500000000	0.00000000000000	21.47377100000000	0.00000000000000	0.00000000000000	1.26751400000000	0.00000000000000	
21.78825600000000	-38.97880300000000	796.61662200000001	57.64783800000000	0.12502500000000	0.00000000000000	0.09640900000000	-11.18944200000000	40.82905000000000	5.16201500000000	0.32689600000000	0.00000000000000	-0.09307600000000	0.00000000000000	21.31633000000000	0.00000000000000	0.00000000000000	1.51885000000000	0.00000000000000	
21.78991500000000	-39.11287200000000	793.12785499999995	57.24027400000000	0.12438100000000	0.00000000000000	0.09629500000000	-12.33293900000000	47.60001100000000	5.80180900000000	0.33034200000000	0.00000000000000	-0.09351200000000	0.00000000000000	21.15872400000000	0.00000000000000	0.00000000000000	1.77523400000000	0.00000000000000	
21.79158500000000	-39.26313700000000	789.52292899999998	56.80592300000000	0.12375300000000	0.00000000000000	0.09617700000000	-13.28464500000000	54.39227800000000	6.38176900000000	0.33372000000000	0.00000000000000	-0.09390200000000	0.00000000000000	21.00116600000000	0.00000000000000	0.00000000000000	2.03143800000000	0.00000000000000	
21.79325500000000	-39.43006100000000	785.80295699999999	56.34496700000000	0.12314200000000	0.00000000000000	0.09605300000000	-14.01561300000000	61.11437300000000	6.88805100000000	0.33703100000000	0.00000000000000	-0.09425300000000	0.00000000000000	20.84385900000000	0.00000000000000	0.00000000000000	2.28277100000000	0.00000000000000	
21.79491600000000	-39.61405100000000	781.96903299999997	55.85763600000000	0.12255000000000	0.00000000000000	0.09592400000000	-14.50892900000000	67.69923799999999	7.31140200000000	0.34027600000000	0.00000000000000	-0.09457000000000	0.00000000000000	20.68699300000000	0.00000000000000	0.00000000000000	2.52531400000000	0.00000000000000	
21.79658500000000	-39.81544800000000	778.02222400000005	55.34420600000000	0.12197600000000	0.00000000000000	0.09578900000000	-14.75953300000000	74.10608900000000	7.64722100000000	0.34345400000000	0.00000000000000	-0.09485900000000	0.00000000000000	20.53073900000000	0.00000000000000	0.00000000000000	2.75607200000000	0.00000000000000	
21.79825600000000	-40.03453000000000	773.96356100000003	54.80500300000000	0.12142300000000	0.00000000000000	0.09564800000000	-14.77310500000000	80.31979000000000	7.89522600000000	0.34656500000000	0.00000000000000	-0.09512200000000	0.00000000000000	20.37525700000000	0.00000000000000	0.00000000000000	2.97302000000000	0.00000000000000	
21.79991800000000	-40.27150600000000	769.79403500000001	54.24040000000000	0.12089000000000	0.00000000000000	0.09550300000000	-14.56424400000000	86.34822500000000	8.05882600000000	0.34960900000000	0.00000000000000	-0.09536500000000	0.00000000000000	20.22068600000000	0.00000000000000	0.00000000000000	3.17506300000000	0.00000000000000	
